<svg xmlns="http://www.w3.org/2000/svg" version="1.1" xmlns:xlink="http://www.w3.org/1999/xlink" width="1000" height="1000"><g clip-path="url(#SvgjsClipPath1079)"><rect width="1000" height="1000" fill="#ffffff"></rect><g transform="matrix(31.25,0,0,31.25,0,0)"><svg xmlns="http://www.w3.org/2000/svg" version="1.1" xmlns:xlink="http://www.w3.org/1999/xlink" width="32" height="32"><svg version="1.1" id="Layer_1" xmlns="http://www.w3.org/2000/svg" xmlns:xlink="http://www.w3.org/1999/xlink" x="0px" y="0px" viewBox="0 0 32 32" style="enable-background:new 0 0 32 32;" xml:space="preserve">
<style type="text/css">
	.st0{fill:#FFFFFF;}
	.st1{fill:#3AAAE0;}
	.st2{display:none;fill:#3AAAE0;}
	.st3{fill:none;stroke:#FDB81E;stroke-width:0.4822;stroke-miterlimit:10.0005;}
	.st4{fill:#FDB81E;}
	.st5{fill:#FDB81E;stroke:#100C35;stroke-width:1.0841;stroke-miterlimit:10;}
	.st6{fill:#212121;}
	.st7{fill:#100C35;}
</style>
<rect class="st0" width="32" height="32"></rect>
<g>
	<ellipse class="st1" cx="16" cy="16" rx="12.3" ry="12.1"></ellipse>
	<ellipse class="st1" cx="16" cy="4" rx="1.2" ry="0.8"></ellipse>
	<ellipse transform="matrix(0.1675 -0.9859 0.9859 0.1675 10.9981 21.3321)" class="st1" cx="18.1" cy="4.2" rx="0.8" ry="1.2"></ellipse>
	<ellipse transform="matrix(0.3309 -0.9437 0.9437 0.3309 9.1161 22.1888)" class="st1" cx="20.2" cy="4.7" rx="0.8" ry="1.2"></ellipse>
	<ellipse transform="matrix(0.4861 -0.8739 0.8739 0.4861 6.5 22.1664)" class="st1" cx="22.1" cy="5.6" rx="0.8" ry="1.2"></ellipse>
	<ellipse transform="matrix(0.6286 -0.7777 0.7777 0.6286 3.579 21.0993)" class="st1" cx="23.9" cy="6.8" rx="0.8" ry="1.2"></ellipse>
	<ellipse transform="matrix(0.7539 -0.6569 0.6569 0.7539 0.8089 18.7057)" class="st1" cx="25.4" cy="8.3" rx="0.8" ry="1.2"></ellipse>
	<ellipse transform="matrix(0.8577 -0.5142 0.5142 0.8577 -1.3407 15.092)" class="st1" cx="26.6" cy="10" rx="0.8" ry="1.2"></ellipse>
	<ellipse transform="matrix(0.9354 -0.3536 0.3536 0.9354 -2.4277 10.4877)" class="st1" cx="27.5" cy="11.9" rx="0.8" ry="1.2"></ellipse>
	<ellipse transform="matrix(0.9836 -0.1801 0.1801 0.9836 -2.0452 5.2817)" class="st1" cx="28.1" cy="13.9" rx="0.8" ry="1.2"></ellipse>
	<ellipse class="st1" cx="28.2" cy="16" rx="0.8" ry="1.2"></ellipse>
	<ellipse transform="matrix(0.1801 -0.9836 0.9836 0.1801 5.217 42.4059)" class="st1" cx="28" cy="18.1" rx="1.2" ry="0.8"></ellipse>
	<ellipse transform="matrix(0.3536 -0.9354 0.9354 0.3536 -1.0251 38.7204)" class="st1" cx="27.5" cy="20.1" rx="1.2" ry="0.8"></ellipse>
	<ellipse transform="matrix(0.5142 -0.8577 0.8577 0.5142 -5.9827 33.5143)" class="st1" cx="26.6" cy="22" rx="1.2" ry="0.8"></ellipse>
	<ellipse transform="matrix(0.6569 -0.7539 0.7539 0.6569 -9.2072 27.2819)" class="st1" cx="25.4" cy="23.8" rx="1.2" ry="0.8"></ellipse>
	<ellipse transform="matrix(0.7777 -0.6286 0.6286 0.7777 -10.5533 20.6117)" class="st1" cx="23.9" cy="25.2" rx="1.2" ry="0.8"></ellipse>
	<ellipse transform="matrix(0.8739 -0.4861 0.4861 0.8739 -10.069 14.0844)" class="st1" cx="22.1" cy="26.5" rx="1.2" ry="0.8"></ellipse>
	<ellipse transform="matrix(0.9437 -0.3309 0.3309 0.9437 -7.8998 8.2198)" class="st1" cx="20.2" cy="27.3" rx="1.2" ry="0.8"></ellipse>
	<ellipse transform="matrix(0.9859 -0.1675 0.1675 0.9859 -4.4154 3.4278)" class="st1" cx="18.1" cy="27.9" rx="1.2" ry="0.8"></ellipse>
	<ellipse class="st1" cx="16" cy="28" rx="1.2" ry="0.8"></ellipse>
	<ellipse transform="matrix(0.1675 -0.9859 0.9859 0.1675 -15.8916 36.9224)" class="st1" cx="13.9" cy="27.9" rx="0.8" ry="1.2"></ellipse>
	<ellipse transform="matrix(0.3309 -0.9437 0.9437 0.3309 -17.8675 29.4345)" class="st1" cx="11.8" cy="27.3" rx="0.8" ry="1.2"></ellipse>
	<ellipse transform="matrix(0.4861 -0.8739 0.8739 0.4861 -18.0317 22.1765)" class="st1" cx="9.8" cy="26.4" rx="0.8" ry="1.2"></ellipse>
	<ellipse transform="matrix(0.6286 -0.7777 0.7777 0.6286 -16.6013 15.6867)" class="st1" cx="8.1" cy="25.2" rx="0.8" ry="1.2"></ellipse>
	<ellipse transform="matrix(0.7539 -0.6569 0.6569 0.7539 -13.9776 10.1972)" class="st1" cx="6.6" cy="23.8" rx="0.8" ry="1.2"></ellipse>
	<ellipse transform="matrix(0.8577 -0.5142 0.5142 0.8577 -10.564 5.9001)" class="st1" cx="5.4" cy="22" rx="0.8" ry="1.2"></ellipse>
	<ellipse transform="matrix(0.9354 -0.3536 0.3536 0.9354 -6.8336 2.8856)" class="st1" cx="4.5" cy="20.1" rx="0.8" ry="1.2"></ellipse>
	<ellipse transform="matrix(0.9836 -0.1801 0.1801 0.9836 -3.1948 1.0048)" class="st1" cx="3.9" cy="18.1" rx="0.8" ry="1.2"></ellipse>
	<ellipse class="st1" cx="3.7" cy="16" rx="0.8" ry="1.2"></ellipse>
	<ellipse transform="matrix(0.1801 -0.9836 0.9836 0.1801 -10.4663 15.1891)" class="st1" cx="3.9" cy="13.9" rx="1.2" ry="0.8"></ellipse>
	<ellipse transform="matrix(0.3536 -0.9354 0.9354 0.3536 -8.2571 11.8668)" class="st1" cx="4.5" cy="11.9" rx="1.2" ry="0.8"></ellipse>
	<ellipse transform="matrix(0.5142 -0.8577 0.8577 0.5142 -5.9556 9.4564)" class="st1" cx="5.4" cy="10" rx="1.2" ry="0.8"></ellipse>
	<ellipse transform="matrix(0.6569 -0.7539 0.7539 0.6569 -3.9621 7.8334)" class="st1" cx="6.6" cy="8.3" rx="1.2" ry="0.8"></ellipse>
	<ellipse transform="matrix(0.7777 -0.6286 0.6286 0.7777 -2.4697 6.6239)" class="st1" cx="8.1" cy="6.8" rx="1.2" ry="0.8"></ellipse>
	<ellipse transform="matrix(0.8739 -0.4861 0.4861 0.8739 -1.4552 5.4902)" class="st1" cx="9.9" cy="5.5" rx="1.2" ry="0.8"></ellipse>
	<ellipse transform="matrix(0.9437 -0.3309 0.3309 0.9437 -0.8864 4.1714)" class="st1" cx="11.8" cy="4.7" rx="1.2" ry="0.8"></ellipse>
	<ellipse transform="matrix(0.9859 -0.1675 0.1675 0.9859 -0.4983 2.3794)" class="st1" cx="13.9" cy="4.1" rx="1.2" ry="0.8"></ellipse>
</g>
<g>
	<polyline class="st2" points="30.9,12.3 29.2,15.7 29.1,16 29.2,16.3 30.9,19.8 1.1,19.8 2.8,16.3 2.9,16 2.8,15.7 1.1,12.3 
		30.9,12.3 	"></polyline>
	<polygon class="st1" points="32,11.6 0,11.6 2.2,16 0,20.4 32,20.4 29.8,16 	"></polygon>
</g>
<g>
	<ellipse class="st3" cx="16" cy="16" rx="11.2" ry="11"></ellipse>
	<g>
		<path class="st4" d="M11.1,6.2C9.4,7,8.1,8.1,7,9.6l8.2,7l1.5-1.2L11.1,6.2z"></path>
		<path class="st4" d="M25,9.6c-1.1-1.5-2.4-2.7-4.1-3.4l-5.6,9.2l1.5,1.2L25,9.6z"></path>
	</g>
	<g>
		<path class="st4" d="M11.1,25.8C9.4,25.1,8.1,24,7,22.4l8.2-7l1.5,1.2L11.1,25.8z"></path>
		<path class="st4" d="M25,22.4c-1.1,1.5-2.4,2.7-4.1,3.4l-5.6-9.2l1.5-1.2L25,22.4z"></path>
	</g>
</g>
<g>
	<g>
		<path class="st5" d="M10.3,12.3c1.2-1.8,3.3-3,5.7-3c3.8,0,6.8,3,6.8,6.7s-3,6.7-6.8,6.7s-6.8-3-6.8-6.7
			C9.2,14.6,9.6,13.4,10.3,12.3L10.3,12.3z"></path>
		<g>
			<path class="st4" d="M29.3,16l2,4h-9.8c-1.2,1.7-3.2,2.8-5.5,2.8s-4.3-1.1-5.5-2.8H0.7l2-4l-2-4h9.8c1.2-1.7,3.2-2.8,5.5-2.8
				s4.3,1.1,5.5,2.8h9.8L29.3,16z"></path>
		</g>
	</g>
	<g>
		<g>
			<path class="st6" d="M16,9.3c2.3,0,4.4,1.1,5.7,3l0.1,0.2H22h8.6L29,15.8L28.9,16l0.1,0.2l1.7,3.3H22h-0.2l-0.1,0.2
				c-1.3,1.9-3.4,3-5.7,3s-4.4-1.1-5.7-3l-0.1-0.2H10H1.4L3,16.2L3.1,16L3,15.8l-1.7-3.3H10h0.2l0.1-0.2C11.6,10.4,13.7,9.3,16,9.3
				 M16,8.9c-2.5,0-4.7,1.2-6,3.2H0.7l2,4l-2,4H10c1.3,1.9,3.5,3.2,6,3.2s4.7-1.2,6-3.2h9.3l-2-4l2-4H22C20.7,10.1,18.5,8.9,16,8.9
				L16,8.9z"></path>
		</g>
		<g>
			<g>
				<polygon class="st6" points="29.1,16 31,19.9 30.8,20 30.6,20 28.6,16 30.6,12 30.8,12 31,12.1 				"></polygon>
			</g>
		</g>
		<g>
			<g>
				<polygon class="st6" points="3.3,16 1.3,20 1.1,20 0.9,19.9 2.8,16 0.9,12.1 1.1,12 1.3,12 				"></polygon>
			</g>
		</g>
	</g>
</g>
<g>
	<path class="st7" d="M11.6,19.5c-0.2,0-0.3-0.1-0.5-0.3c-0.2-0.2-0.3-0.4-0.3-0.6s0.1-0.5,0.2-1c0.5-1.5,0.7-2.8,0.7-3.7
		c-0.2-0.2-0.3-0.4-0.3-0.6s0.2-0.4,0.7-0.6c0.5-0.2,1-0.2,1.4-0.2c0.8,0,1.4,0.2,1.8,0.5c0.4,0.3,0.6,0.7,0.6,1.3
		c0,0.7-0.3,1.3-1,1.9c-0.7,0.6-1.6,0.9-2.6,1.2c-0.3,1.1-0.5,1.7-0.6,1.8C11.7,19.2,11.7,19.3,11.6,19.5
		C11.7,19.5,11.6,19.5,11.6,19.5z M14.2,15.4c0.3-0.3,0.6-0.6,0.6-0.8c0-0.2-0.1-0.5-0.2-0.6c-0.2-0.2-0.4-0.2-0.7-0.2
		c-0.2,0-0.6,0.1-0.9,0.2c0.1,0.2,0.2,0.3,0.2,0.5c0,0.3-0.1,0.9-0.3,1.7C13.4,16,13.9,15.8,14.2,15.4z"></path>
	<path class="st7" d="M19.9,19c-0.5,0.3-1.1,0.6-1.7,0.6s-1.2-0.2-1.6-0.5c-0.4-0.3-0.6-0.7-0.6-1s0.1-0.5,0.2-0.5s0.4,0.2,0.7,0.4
		c0.1,0.1,0.2,0.2,0.4,0.2c0.2,0.1,0.4,0.2,0.7,0.2s0.6-0.1,0.9-0.3c0.3-0.2,0.5-0.4,0.5-0.6s-0.2-0.4-0.5-0.7
		c-0.3-0.3-0.7-0.7-1.1-1c-0.3-0.3-0.5-0.6-0.5-0.8c0-0.2,0-0.4,0.1-0.6c0.1-0.2,0.2-0.3,0.2-0.5c0.3-0.3,0.7-0.6,1.3-0.8
		c0.6-0.2,1-0.3,1.4-0.3c0.2,0,0.4,0.1,0.6,0.2s0.2,0.3,0.2,0.6c0,0.1-0.1,0.2-0.2,0.2c-0.2,0.1-0.3,0.1-0.6,0.2
		c-0.2,0.1-0.5,0.1-0.7,0.2c-0.7,0.3-1.2,0.6-1.2,0.7c0,0.1,0.3,0.5,1.1,1.1c0.2,0.2,0.5,0.5,0.7,0.8c0.2,0.3,0.3,0.7,0.3,0.9
		C20.6,18.1,20.4,18.6,19.9,19z"></path>
</g>
</svg></svg></g></g><defs><clipPath id="SvgjsClipPath1079"><rect width="1000" height="1000" x="0" y="0" rx="350" ry="350"></rect></clipPath></defs></svg>